<mxfile host="65bd71144e">
    <diagram id="EKSqsZRRdiXt-dXIfnPk" name="Page-1">
        <mxGraphModel dx="1563" dy="1671" grid="1" gridSize="10" guides="1" tooltips="1" connect="1" arrows="1" fold="1" page="1" pageScale="1" pageWidth="850" pageHeight="1100" math="0" shadow="0">
            <root>
                <mxCell id="0"/>
                <mxCell id="1" parent="0"/>
                <mxCell id="2" value="Fetch Profile" style="shape=table;childLayout=tableLayout;startSize=40;collapsible=0;recursiveResize=0;expand=0;fillColor=#b1ddf0;strokeColor=#000000;fontColor=#000000;" parent="1" vertex="1">
                    <mxGeometry x="-60" y="-10" width="1150" height="472" as="geometry"/>
                </mxCell>
                <mxCell id="3" value="" style="shape=tableRow;horizontal=0;swimlaneHead=0;swimlaneBody=0;top=0;left=0;bottom=0;right=0;dropTarget=0;fontStyle=0;fillColor=#b0e3e6;points=[[0,0.5],[1,0.5]];portConstraint=eastwest;startSize=40;collapsible=0;recursiveResize=0;expand=0;strokeColor=#0e8088;fontColor=#000000;" parent="2" vertex="1">
                    <mxGeometry y="40" width="1150" height="144" as="geometry"/>
                </mxCell>
                <mxCell id="4" value="Controller" style="swimlane;swimlaneHead=0;swimlaneBody=0;fontStyle=0;connectable=0;fillColor=#b0e3e6;startSize=30;collapsible=0;recursiveResize=0;expand=0;strokeColor=#000000;fontColor=#000000;swimlaneFillColor=#E6E6E6;" parent="3" vertex="1">
                    <mxGeometry x="40" width="279" height="144" as="geometry">
                        <mxRectangle width="279" height="144" as="alternateBounds"/>
                    </mxGeometry>
                </mxCell>
                <mxCell id="11" value="Fetch Profile" style="whiteSpace=wrap;html=1;fillColor=#999999;fillStyle=auto;fontColor=#000000;" parent="4" vertex="1">
                    <mxGeometry x="60" y="70" width="80" height="40" as="geometry"/>
                </mxCell>
                <mxCell id="5" value="Service" style="swimlane;swimlaneHead=0;swimlaneBody=0;fontStyle=0;connectable=0;fillColor=#b0e3e6;startSize=30;collapsible=0;recursiveResize=0;expand=0;strokeColor=#000000;fontColor=#000000;swimlaneFillColor=#E6E6E6;" parent="3" vertex="1">
                    <mxGeometry x="319" width="276" height="144" as="geometry">
                        <mxRectangle width="276" height="144" as="alternateBounds"/>
                    </mxGeometry>
                </mxCell>
                <mxCell id="13" value="Fetch Profile" style="whiteSpace=wrap;html=1;fillColor=#999999;fontColor=#000000;" parent="5" vertex="1">
                    <mxGeometry x="51" y="70" width="79" height="40" as="geometry"/>
                </mxCell>
                <mxCell id="6" value="Repository" style="swimlane;swimlaneHead=0;swimlaneBody=0;fontStyle=0;connectable=0;fillColor=#b0e3e6;startSize=30;collapsible=0;recursiveResize=0;expand=0;strokeColor=#000000;fontColor=#000000;swimlaneFillColor=#E6E6E6;" parent="3" vertex="1">
                    <mxGeometry x="595" width="279" height="144" as="geometry">
                        <mxRectangle width="279" height="144" as="alternateBounds"/>
                    </mxGeometry>
                </mxCell>
                <mxCell id="15" value="Fetch Company" style="whiteSpace=wrap;html=1;fillColor=#999999;fontColor=#000000;" parent="6" vertex="1">
                    <mxGeometry x="95" y="70" width="80" height="40" as="geometry"/>
                </mxCell>
                <mxCell id="7" value="Entity" style="swimlane;swimlaneHead=0;swimlaneBody=0;fontStyle=0;connectable=0;fillColor=#b0e3e6;startSize=30;collapsible=0;recursiveResize=0;expand=0;strokeColor=#000000;fontColor=#000000;swimlaneFillColor=#E6E6E6;" parent="3" vertex="1">
                    <mxGeometry x="874" width="276" height="144" as="geometry">
                        <mxRectangle width="276" height="144" as="alternateBounds"/>
                    </mxGeometry>
                </mxCell>
                <mxCell id="8" value="Profile" style="swimlane;childLayout=stackLayout;horizontal=1;startSize=30;horizontalStack=0;rounded=1;fontSize=14;fontStyle=0;strokeWidth=2;resizeParent=0;resizeLast=1;shadow=0;dashed=0;align=center;fillColor=#99FFCC;strokeColor=#000000;fontColor=#000000;" parent="7" vertex="1">
                    <mxGeometry x="66" y="40" width="160" height="90" as="geometry"/>
                </mxCell>
                <mxCell id="18" style="edgeStyle=none;html=1;entryX=0;entryY=0.5;entryDx=0;entryDy=0;strokeColor=#000000;" parent="3" source="11" target="13" edge="1">
                    <mxGeometry relative="1" as="geometry"/>
                </mxCell>
                <mxCell id="19" style="edgeStyle=none;html=1;strokeColor=#000000;" parent="3" source="13" target="15" edge="1">
                    <mxGeometry relative="1" as="geometry"/>
                </mxCell>
                <mxCell id="46" style="edgeStyle=none;html=1;entryX=1;entryY=0.5;entryDx=0;entryDy=0;strokeColor=#000000;" edge="1" parent="3" source="8" target="15">
                    <mxGeometry relative="1" as="geometry">
                        <mxPoint x="790" y="85" as="targetPoint"/>
                    </mxGeometry>
                </mxCell>
                <mxCell id="9" value="" style="shape=tableRow;horizontal=0;swimlaneHead=0;swimlaneBody=0;top=0;left=0;bottom=0;right=0;dropTarget=0;fontStyle=0;fillColor=#b0e3e6;points=[[0,0.5],[1,0.5]];portConstraint=eastwest;startSize=40;collapsible=0;recursiveResize=0;expand=0;strokeColor=#000000;" parent="2" vertex="1">
                    <mxGeometry y="184" width="1150" height="144" as="geometry"/>
                </mxCell>
                <mxCell id="10" value="" style="swimlane;swimlaneHead=0;swimlaneBody=0;fontStyle=0;connectable=0;fillColor=none;startSize=0;collapsible=0;recursiveResize=0;expand=0;swimlaneFillColor=#E6E6E6;strokeColor=#000000;" parent="9" vertex="1">
                    <mxGeometry x="40" width="279" height="144" as="geometry">
                        <mxRectangle width="279" height="144" as="alternateBounds"/>
                    </mxGeometry>
                </mxCell>
                <mxCell id="12" value="" style="swimlane;swimlaneHead=0;swimlaneBody=0;fontStyle=0;connectable=0;fillColor=none;startSize=0;collapsible=0;recursiveResize=0;expand=0;swimlaneFillColor=#E6E6E6;strokeColor=#000000;fontColor=#000000;" parent="9" vertex="1">
                    <mxGeometry x="319" width="276" height="144" as="geometry">
                        <mxRectangle width="276" height="144" as="alternateBounds"/>
                    </mxGeometry>
                </mxCell>
                <mxCell id="14" value="" style="swimlane;swimlaneHead=0;swimlaneBody=0;fontStyle=0;connectable=0;fillColor=none;startSize=0;collapsible=0;recursiveResize=0;expand=0;swimlaneFillColor=#E6E6E6;strokeColor=#000000;" parent="9" vertex="1">
                    <mxGeometry x="595" width="279" height="144" as="geometry">
                        <mxRectangle width="279" height="144" as="alternateBounds"/>
                    </mxGeometry>
                </mxCell>
                <mxCell id="16" value="" style="swimlane;swimlaneHead=0;swimlaneBody=0;fontStyle=0;connectable=0;fillColor=none;startSize=0;collapsible=0;recursiveResize=0;expand=0;swimlaneFillColor=#E6E6E6;strokeColor=#000000;" parent="9" vertex="1">
                    <mxGeometry x="874" width="276" height="144" as="geometry">
                        <mxRectangle width="276" height="144" as="alternateBounds"/>
                    </mxGeometry>
                </mxCell>
                <mxCell id="17" value="Vacancies" style="swimlane;childLayout=stackLayout;horizontal=1;startSize=30;horizontalStack=0;rounded=1;fontSize=14;fontStyle=0;strokeWidth=2;resizeParent=0;resizeLast=1;shadow=0;dashed=0;align=center;fillColor=#99FFCC;strokeColor=#000000;fontColor=#000000;" parent="16" vertex="1">
                    <mxGeometry x="58" y="27" width="160" height="90" as="geometry"/>
                </mxCell>
                <mxCell id="21" value="" style="shape=tableRow;horizontal=0;swimlaneHead=0;swimlaneBody=0;top=0;left=0;bottom=0;right=0;dropTarget=0;fontStyle=0;fillColor=#b0e3e6;points=[[0,0.5],[1,0.5]];portConstraint=eastwest;startSize=40;collapsible=0;recursiveResize=0;expand=0;strokeColor=#0e8088;" parent="2" vertex="1">
                    <mxGeometry y="328" width="1150" height="144" as="geometry"/>
                </mxCell>
                <mxCell id="22" value="" style="swimlane;swimlaneHead=0;swimlaneBody=0;fontStyle=0;connectable=0;fillColor=none;startSize=0;collapsible=0;recursiveResize=0;expand=0;swimlaneFillColor=#E6E6E6;strokeColor=#000000;" parent="21" vertex="1">
                    <mxGeometry x="40" width="279" height="144" as="geometry">
                        <mxRectangle width="279" height="144" as="alternateBounds"/>
                    </mxGeometry>
                </mxCell>
                <mxCell id="23" value="" style="swimlane;swimlaneHead=0;swimlaneBody=0;fontStyle=0;connectable=0;fillColor=none;startSize=0;collapsible=0;recursiveResize=0;expand=0;swimlaneFillColor=#E6E6E6;strokeColor=#000000;" parent="21" vertex="1">
                    <mxGeometry x="319" width="276" height="144" as="geometry">
                        <mxRectangle width="276" height="144" as="alternateBounds"/>
                    </mxGeometry>
                </mxCell>
                <mxCell id="24" value="" style="swimlane;swimlaneHead=0;swimlaneBody=0;fontStyle=0;connectable=0;fillColor=none;startSize=0;collapsible=0;recursiveResize=0;expand=0;fontColor=#000000;swimlaneFillColor=#E6E6E6;strokeColor=#000000;" parent="21" vertex="1">
                    <mxGeometry x="595" width="279" height="144" as="geometry">
                        <mxRectangle width="279" height="144" as="alternateBounds"/>
                    </mxGeometry>
                </mxCell>
                <mxCell id="25" value="" style="swimlane;swimlaneHead=0;swimlaneBody=0;fontStyle=0;connectable=0;fillColor=none;startSize=0;collapsible=0;recursiveResize=0;expand=0;swimlaneFillColor=#E6E6E6;strokeColor=#000000;" parent="21" vertex="1">
                    <mxGeometry x="874" width="276" height="144" as="geometry">
                        <mxRectangle width="276" height="144" as="alternateBounds"/>
                    </mxGeometry>
                </mxCell>
                <mxCell id="26" value="Activities" style="swimlane;childLayout=stackLayout;horizontal=1;startSize=30;horizontalStack=0;rounded=1;fontSize=14;fontStyle=0;strokeWidth=2;resizeParent=0;resizeLast=1;shadow=0;dashed=0;align=center;fillColor=#99FFCC;strokeColor=#000000;fontColor=#000000;" parent="25" vertex="1">
                    <mxGeometry x="58" y="27" width="160" height="90" as="geometry"/>
                </mxCell>
                <mxCell id="41" value="&lt;font color=&quot;#000000&quot;&gt;Profile&lt;/font&gt;" style="text;strokeColor=none;align=center;fillColor=none;html=1;verticalAlign=middle;whiteSpace=wrap;rounded=0;rotation=-90;" parent="1" vertex="1">
                    <mxGeometry x="-70" y="70" width="60" height="30" as="geometry"/>
                </mxCell>
                <mxCell id="42" value="&lt;font color=&quot;#000000&quot;&gt;Vacancies&lt;/font&gt;" style="text;strokeColor=none;align=center;fillColor=none;html=1;verticalAlign=middle;whiteSpace=wrap;rounded=0;rotation=-90;" parent="1" vertex="1">
                    <mxGeometry x="-70" y="230" width="60" height="30" as="geometry"/>
                </mxCell>
                <mxCell id="43" value="&lt;font color=&quot;#000000&quot;&gt;Activities&lt;/font&gt;" style="text;strokeColor=none;align=center;fillColor=none;html=1;verticalAlign=middle;whiteSpace=wrap;rounded=0;rotation=-90;" parent="1" vertex="1">
                    <mxGeometry x="-70" y="370" width="60" height="30" as="geometry"/>
                </mxCell>
                <mxCell id="44" style="edgeStyle=none;html=1;strokeColor=#000000;" parent="1" source="45" target="11" edge="1">
                    <mxGeometry relative="1" as="geometry"/>
                </mxCell>
                <mxCell id="45" value="&lt;font color=&quot;#ffffff&quot;&gt;Actor&lt;/font&gt;" style="shape=umlActor;verticalLabelPosition=bottom;verticalAlign=top;html=1;outlineConnect=0;strokeColor=#FFFFFF;fillColor=none;" parent="1" vertex="1">
                    <mxGeometry x="-160" y="90" width="30" height="60" as="geometry"/>
                </mxCell>
            </root>
        </mxGraphModel>
    </diagram>
</mxfile>